# xmcd CD database file
#
# Track frame offsets:
#	150
#	14672
#	34762
#	50757
#	66162
#	87841
#	107288
#	128009
#	147468
#	164372
#	184160
#	201352
#	222723
#	242564
#	261723
#	280320
#	297450
#	319977
#
# Disc length: 4551 seconds
#
# Revision: 0
# Processed by: cddbd v1.5.1PL0 Copyright (c) Steve Scherf et al.
# Submitted via: CDex 1.51
#
DISCID=2711c512
DTITLE=Various Artist - Merengue 2005 CD 1
DYEAR=2004
DGENRE=Merengue
TTITLE0=Las Avispas - J. L. Guerra
TTITLE1=Una Cancion - Terranova
TTITLE2=La Muchacha - Magic Juan
TTITLE3=Nuestra Cancion - Elvis Crespo
TTITLE4=Nuestro Amor - Eddy H
TTITLE5=Azul - Cristian C
TTITLE6=No Puedo Olvidarla - Rikarena
TTITLE7=Una Mirada Tu - Bananas
TTITLE8=No me Digas Que No - La Makina
TTITLE9=La Cachamba - Kinito Mendez
TTITLE10=El Idiota - Eddy H
TTITLE11=La Duena Del Swing - Hnos Rosario
TTITLE12=Suavemente - Elvis Crespo
TTITLE13=La Flaca - Ruby Perez
TTITLE14=Dime Que Me Amas - Kalibre
TTITLE15=La Paleta - Oro Solido
TTITLE16=Dile - Sergio V
TTITLE17=La Ventanita - Sergio V
EXTD=YEAR: 2004
EXTT0=
EXTT1=
EXTT2=
EXTT3=
EXTT4=
EXTT5=
EXTT6=
EXTT7=
EXTT8=
EXTT9=
EXTT10=
EXTT11=
EXTT12=
EXTT13=
EXTT14=
EXTT15=
EXTT16=
EXTT17=
PLAYORDER=
